<svg width="40" height="40" viewBox="0 0 40 40" fill="none" xmlns="http://www.w3.org/2000/svg">
<circle opacity="0.3" cx="20" cy="20" r="20" fill="#146D28"/>
<circle opacity="0.5" cx="20" cy="20" r="15" fill="#146D28"/>
<path d="M18.2498 23.7917C18.0247 23.7745 17.8153 23.6698 17.6665 23.5L14.1665 20C14.0885 19.8367 14.0631 19.6533 14.0937 19.475C14.1243 19.2966 14.2094 19.1322 14.3373 19.0042C14.4653 18.8763 14.6298 18.7911 14.8081 18.7605C14.9864 18.7299 15.1699 18.7554 15.3331 18.8334L18.2148 21.715L28.1665 11.8334C28.3298 11.7554 28.5132 11.7299 28.6915 11.7605C28.8699 11.7911 29.0343 11.8763 29.1623 12.0042C29.2902 12.1322 29.3754 12.2966 29.406 12.475C29.4366 12.6533 29.4111 12.8367 29.3331 13L18.8331 23.5C18.6843 23.6698 18.4749 23.7745 18.2498 23.7917Z" fill="#00B62A"/>
<path d="M20.0001 30.5C18.1235 30.497 16.282 29.9911 14.6672 29.0349C13.0524 28.0788 11.7234 26.7073 10.8185 25.0633C10.1306 23.8383 9.70543 22.4834 9.57013 21.085C9.3566 19.0341 9.75167 16.9657 10.706 15.1379C11.6604 13.31 13.1319 11.8036 14.9368 10.8066C16.1618 10.1188 17.5167 9.69362 18.9151 9.55831C20.3083 9.40845 21.7174 9.54341 23.0568 9.95498C23.1763 9.97886 23.2896 10.0275 23.3892 10.0977C23.4889 10.1678 23.5728 10.2581 23.6355 10.3626C23.6983 10.4671 23.7385 10.5836 23.7536 10.7045C23.7687 10.8255 23.7584 10.9483 23.7233 11.065C23.6882 11.1817 23.6291 11.2898 23.5498 11.3824C23.4704 11.475 23.3727 11.5499 23.2627 11.6025C23.1527 11.655 23.0329 11.6841 22.9111 11.6876C22.7893 11.6912 22.668 11.6693 22.5551 11.6233C21.4218 11.2826 20.2319 11.1715 19.0551 11.2966C17.892 11.4158 16.7649 11.7689 15.7418 12.335C14.7561 12.8788 13.8846 13.6076 13.1751 14.4816C12.4446 15.372 11.8991 16.3992 11.5706 17.503C11.2421 18.6068 11.1371 19.7651 11.2618 20.91C11.3809 22.0731 11.7341 23.2002 12.3001 24.2233C12.8439 25.209 13.5728 26.0805 14.4468 26.79C15.3371 27.5205 16.3643 28.066 17.4681 28.3945C18.5719 28.723 19.7302 28.828 20.8751 28.7033C22.0383 28.5842 23.1653 28.231 24.1885 27.665C25.1741 27.1212 26.0456 26.3923 26.7551 25.5183C27.4856 24.628 28.0311 23.6008 28.3597 22.497C28.6882 21.3932 28.7932 20.2349 28.6685 19.09C28.6453 18.8471 28.7195 18.6049 28.8748 18.4168C29.0302 18.2286 29.2539 18.1099 29.4968 18.0866C29.7397 18.0634 29.9819 18.1377 30.17 18.293C30.3582 18.4484 30.4769 18.6721 30.5001 18.915C30.7126 20.9671 30.3158 23.0363 29.3592 24.8643C28.4027 26.6923 26.9289 28.1979 25.1218 29.1933C23.8837 29.9093 22.5079 30.3547 21.0851 30.5H20.0001Z" fill="#00B62A"/>
</svg>

