<svg width="159" height="31" viewBox="0 0 159 31" fill="none" xmlns="http://www.w3.org/2000/svg">
<path d="M10.2725 1.27611C10.5288 0.571403 11.1985 0.102295 11.9484 0.102295H22.865C24.1025 0.102295 24.9638 1.33193 24.5409 2.49492L15.1384 28.3517C14.8822 29.0564 14.2124 29.5255 13.4626 29.5255H2.54591C1.30841 29.5255 0.447142 28.2958 0.870047 27.1329L10.2725 1.27611Z" fill="white"/>
<path d="M14.6094 23.1023H12.0875V13.0467C12.0875 12.7119 12.091 12.3771 12.0981 12.0422C12.1053 11.7074 12.1124 11.3797 12.1195 11.0591C12.1338 10.7385 12.1516 10.4322 12.1729 10.1401C12.0233 10.304 11.8381 10.4821 11.6173 10.6744C11.4035 10.8668 11.1756 11.0662 10.9334 11.2728L9.13811 12.7048L7.87715 11.1126L12.5149 7.4793H14.6094V23.1023Z" fill="#2D363D"/>
<path d="M28.1084 1.27611C28.3647 0.571403 29.0344 0.102295 29.7843 0.102295H40.701C41.9385 0.102295 42.7997 1.33193 42.3768 2.49492L32.9744 28.3517C32.7181 29.0564 32.0484 29.5255 31.2985 29.5255H20.3818C19.1443 29.5255 18.2831 28.2958 18.706 27.1329L28.1084 1.27611Z" fill="white"/>
<path d="M35.6404 23.1023H25.0612V21.2109L29.1113 17.1074C29.8949 16.3095 30.5396 15.6221 31.0454 15.045C31.5512 14.4608 31.9252 13.9087 32.1675 13.3887C32.4168 12.8686 32.5415 12.3023 32.5415 11.6896C32.5415 10.9345 32.3242 10.3645 31.8896 9.97983C31.4551 9.58801 30.8816 9.3921 30.1692 9.3921C29.4924 9.3921 28.8655 9.52746 28.2884 9.79817C27.7185 10.0618 27.1272 10.4393 26.5145 10.9309L25.136 9.27455C25.5706 8.9041 26.0337 8.56571 26.5252 8.25938C27.0239 7.95305 27.5796 7.71083 28.1923 7.53273C28.8049 7.3475 29.5031 7.25489 30.2867 7.25489C31.277 7.25489 32.1318 7.43299 32.8514 7.78919C33.5709 8.13827 34.123 8.62627 34.5077 9.25318C34.8995 9.8801 35.0954 10.6103 35.0954 11.4438C35.0954 12.2845 34.928 13.061 34.5932 13.7734C34.2584 14.4858 33.7811 15.1911 33.1613 15.8892C32.5415 16.5802 31.8041 17.3318 30.9493 18.144L28.2457 20.7834V20.901H35.6404V23.1023Z" fill="#2D363D"/>
<path d="M45.9366 1.27611C46.1928 0.571403 46.8626 0.102295 47.6124 0.102295H58.5291C59.7666 0.102295 60.6279 1.33193 60.205 2.49492L50.8025 28.3517C50.5462 29.0564 49.8765 29.5255 49.1266 29.5255H38.21C36.9725 29.5255 36.1112 28.2958 36.5341 27.1329L45.9366 1.27611Z" fill="white"/>
<path d="M52.8701 11.0484C52.8701 11.7537 52.7277 12.3664 52.4427 12.8864C52.1577 13.4065 51.7659 13.8339 51.2672 14.1688C50.7757 14.4965 50.2057 14.7316 49.5575 14.874V14.9488C50.8042 15.1056 51.7445 15.4974 52.3786 16.1243C53.0197 16.7512 53.3403 17.5812 53.3403 18.6142C53.3403 19.5189 53.123 20.3275 52.6885 21.0399C52.2539 21.7452 51.5878 22.3008 50.6902 22.7069C49.7926 23.113 48.6385 23.316 47.2279 23.316C46.3801 23.316 45.5929 23.2483 44.8663 23.113C44.1468 22.9776 43.4629 22.7603 42.8146 22.4611V20.2277C43.4771 20.5555 44.1824 20.8084 44.9304 20.9865C45.6784 21.1646 46.3873 21.2536 47.0569 21.2536C48.3606 21.2536 49.2903 21.0114 49.846 20.527C50.4017 20.0354 50.6795 19.3586 50.6795 18.4966C50.6795 17.9409 50.5334 17.485 50.2414 17.1288C49.9564 16.7726 49.5112 16.5054 48.9056 16.3273C48.3072 16.1492 47.5342 16.0602 46.5867 16.0602H45.2082V14.0405H46.5974C47.5022 14.0405 48.2288 13.9337 48.7774 13.7199C49.3259 13.4991 49.7213 13.1963 49.9635 12.8116C50.2129 12.4269 50.3375 11.9781 50.3375 11.4652C50.3375 10.7955 50.1203 10.2755 49.6857 9.90503C49.2511 9.52746 48.6064 9.33867 47.7515 9.33867C47.2243 9.33867 46.7435 9.39922 46.3089 9.52033C45.8815 9.64144 45.4861 9.79461 45.1227 9.97983C44.7594 10.1651 44.4139 10.3645 44.0862 10.5783L42.8787 8.83643C43.47 8.39474 44.1753 8.02072 44.9945 7.71439C45.8138 7.40806 46.7684 7.25489 47.8584 7.25489C49.4613 7.25489 50.6973 7.60041 51.5664 8.29144C52.4356 8.97534 52.8701 9.89434 52.8701 11.0484Z" fill="#2D363D"/>
<path d="M103.228 12.3719H103.037C101.829 12.3719 100.875 12.7376 100.175 13.4691C99.4915 14.2005 99.1496 15.3374 99.1496 16.8798V21.6023H95.5242V8.81808H99.1496V11.394C99.5153 10.5195 100.016 9.81982 100.652 9.2951C101.288 8.77037 102.147 8.53186 103.228 8.57956V12.3719ZM116.489 21.6023H112.983V20.2189C112.537 20.7119 112.005 21.1094 111.384 21.4115C110.764 21.6977 110.009 21.8408 109.119 21.8408C108.514 21.8408 107.942 21.7613 107.401 21.6023C106.877 21.4274 106.416 21.173 106.018 20.8391C105.62 20.5051 105.302 20.0997 105.064 19.6226C104.841 19.1297 104.73 18.5652 104.73 17.9292V17.8815C104.73 17.1819 104.857 16.5777 105.112 16.0688C105.366 15.56 105.716 15.1386 106.161 14.8047C106.622 14.4708 107.163 14.2243 107.783 14.0653C108.419 13.8904 109.119 13.803 109.882 13.803C110.534 13.803 111.098 13.8507 111.575 13.9461C112.068 14.0415 112.545 14.1687 113.006 14.3277V14.113C113.006 13.3498 112.776 12.7694 112.315 12.3719C111.854 11.9744 111.17 11.7756 110.263 11.7756C109.564 11.7756 108.944 11.8392 108.403 11.9664C107.878 12.0777 107.322 12.2447 106.734 12.4673L105.827 9.70057C106.527 9.39845 107.258 9.15199 108.021 8.96118C108.785 8.77037 109.707 8.67497 110.788 8.67497C112.776 8.67497 114.223 9.15994 115.129 10.1299C116.035 11.0998 116.489 12.4514 116.489 14.1846V21.6023ZM113.054 17.0944V16.4504C112.736 16.3073 112.378 16.196 111.981 16.1165C111.599 16.0211 111.186 15.9734 110.741 15.9734C109.961 15.9734 109.349 16.1245 108.904 16.4266C108.459 16.7287 108.236 17.166 108.236 17.7384V17.7861C108.236 18.279 108.419 18.6607 108.785 18.931C109.15 19.2013 109.627 19.3364 110.216 19.3364C111.074 19.3364 111.758 19.1297 112.267 18.7163C112.792 18.3029 113.054 17.7623 113.054 17.0944ZM133.036 15.234C133.036 16.2994 132.87 17.2455 132.536 18.0723C132.218 18.8833 131.788 19.5749 131.248 20.1474C130.723 20.7039 130.111 21.1253 129.411 21.4115C128.711 21.6977 127.98 21.8408 127.217 21.8408C126.247 21.8408 125.444 21.65 124.808 21.2684C124.188 20.8868 123.663 20.4415 123.234 19.9327V25.4185H119.608V8.81808H123.234V10.6546C123.679 10.0504 124.212 9.55746 124.832 9.17584C125.468 8.77832 126.263 8.57956 127.217 8.57956C127.964 8.57956 128.688 8.72267 129.387 9.00889C130.087 9.2951 130.707 9.72442 131.248 10.2968C131.788 10.8534 132.218 11.5451 132.536 12.3719C132.87 13.1828 133.036 14.121 133.036 15.1863V15.234ZM129.411 15.234V15.1863C129.411 14.6616 129.324 14.1846 129.149 13.7553C128.99 13.31 128.767 12.9364 128.481 12.6343C128.195 12.3162 127.861 12.0777 127.479 11.9187C127.113 11.7438 126.716 11.6564 126.287 11.6564C125.857 11.6564 125.452 11.7438 125.07 11.9187C124.704 12.0777 124.379 12.3162 124.092 12.6343C123.822 12.9364 123.599 13.31 123.424 13.7553C123.265 14.1846 123.186 14.6616 123.186 15.1863V15.234C123.186 15.7588 123.265 16.2437 123.424 16.689C123.599 17.1183 123.822 17.4919 124.092 17.81C124.379 18.1121 124.704 18.3506 125.07 18.5255C125.452 18.6845 125.857 18.764 126.287 18.764C126.716 18.764 127.113 18.6845 127.479 18.5255C127.861 18.3506 128.195 18.1121 128.481 17.81C128.767 17.4919 128.99 17.1183 129.149 16.689C129.324 16.2596 129.411 15.7747 129.411 15.234ZM147.629 15.568C147.629 15.7429 147.621 15.8939 147.605 16.0211C147.605 16.1483 147.597 16.2994 147.581 16.4743H138.685C138.859 17.3011 139.217 17.9292 139.758 18.3585C140.314 18.772 140.998 18.9787 141.809 18.9787C142.413 18.9787 142.954 18.8753 143.431 18.6686C143.908 18.4619 144.401 18.128 144.91 17.6669L146.985 19.5034C146.381 20.2507 145.649 20.8391 144.79 21.2684C143.932 21.6818 142.922 21.8885 141.761 21.8885C140.807 21.8885 139.917 21.7295 139.09 21.4115C138.279 21.0935 137.572 20.6403 136.967 20.052C136.379 19.4636 135.918 18.772 135.584 17.9769C135.25 17.166 135.083 16.2676 135.083 15.2817V15.234C135.083 14.3277 135.234 13.4691 135.536 12.6581C135.854 11.8472 136.291 11.1396 136.848 10.5354C137.405 9.93113 138.064 9.45411 138.828 9.10429C139.607 8.75447 140.465 8.57956 141.404 8.57956C142.469 8.57956 143.391 8.77037 144.17 9.15199C144.949 9.53361 145.593 10.0504 146.102 10.7023C146.627 11.3383 147.009 12.0777 147.247 12.9205C147.502 13.7473 147.629 14.6139 147.629 15.5202V15.568ZM144.099 14.2084C143.987 13.3975 143.701 12.7456 143.24 12.2526C142.779 11.7438 142.167 11.4894 141.404 11.4894C140.64 11.4894 140.02 11.7359 139.543 12.2288C139.082 12.7217 138.78 13.3816 138.637 14.2084H144.099ZM158.035 12.3719H157.844C156.635 12.3719 155.681 12.7376 154.982 13.4691C154.298 14.2005 153.956 15.3374 153.956 16.8798V21.6023H150.331V8.81808H153.956V11.394C154.322 10.5195 154.823 9.81982 155.459 9.2951C156.095 8.77037 156.953 8.53186 158.035 8.57956V12.3719Z" fill="white"/>
<path d="M76.6698 16.6651C76.6698 17.4919 76.5188 18.2313 76.2167 18.8833C75.9146 19.5193 75.4932 20.0599 74.9526 20.5051C74.4119 20.9345 73.7679 21.2684 73.0206 21.5069C72.2733 21.7295 71.4464 21.8408 70.5401 21.8408C69.268 21.8408 68.0198 21.6261 66.7955 21.1968C65.5711 20.7516 64.458 20.0758 63.4563 19.1695L65.6268 16.5697C66.39 17.1898 67.1691 17.6828 67.9642 18.0485C68.7751 18.4142 69.6576 18.597 70.6116 18.597C71.3749 18.597 71.9632 18.4619 72.3766 18.1916C72.806 17.9054 73.0206 17.5158 73.0206 17.0229V16.9752C73.0206 16.7367 72.9729 16.5299 72.8775 16.355C72.798 16.1642 72.631 15.9893 72.3766 15.8303C72.1381 15.6713 71.7963 15.5123 71.351 15.3533C70.9217 15.1943 70.3572 15.0273 69.6576 14.8524C68.8149 14.6457 68.0516 14.4151 67.3679 14.1607C66.6842 13.9063 66.1038 13.5963 65.6268 13.2305C65.1497 12.8489 64.7761 12.3798 64.5057 11.8233C64.2513 11.2668 64.1241 10.5751 64.1241 9.74827V9.70057C64.1241 8.93733 64.2672 8.2536 64.5535 7.64937C64.8397 7.02924 65.2372 6.49656 65.746 6.05134C66.2707 5.60612 66.8909 5.26425 67.6064 5.02574C68.3219 4.78723 69.109 4.66797 69.9677 4.66797C71.192 4.66797 72.313 4.85083 73.3307 5.21655C74.3642 5.58227 75.3103 6.10699 76.169 6.79073L74.2609 9.55746C73.5135 9.04864 72.7821 8.65112 72.0666 8.3649C71.351 8.06279 70.6355 7.91173 69.92 7.91173C69.2044 7.91173 68.6638 8.05484 68.2981 8.34105C67.9483 8.61137 67.7734 8.95323 67.7734 9.36665V9.41435C67.7734 9.68467 67.8211 9.92318 67.9165 10.1299C68.0278 10.3207 68.2186 10.4956 68.4889 10.6546C68.7592 10.8136 69.1249 10.9647 69.586 11.1078C70.0631 11.2509 70.6593 11.4179 71.3749 11.6087C72.2176 11.8313 72.965 12.0857 73.6169 12.3719C74.2847 12.6422 74.8412 12.9761 75.2865 13.3736C75.7476 13.7553 76.0895 14.2084 76.3121 14.7332C76.5506 15.2579 76.6698 15.886 76.6698 16.6174V16.6651Z" fill="white"/>
<mask id="path-9-inside-1_63_18160" fill="white">
<path d="M91.8385 12.0701C91.211 10.6507 90.1107 9.49269 88.7252 8.79351C87.3396 8.09433 85.7545 7.89719 84.2399 8.23569C82.7253 8.5742 81.375 9.4274 80.4189 10.6499C79.4629 11.8724 78.9603 13.3886 78.9968 14.9402C79.0333 16.4917 79.6067 17.9826 80.6192 19.1587C81.6317 20.3349 83.0207 21.1237 84.5495 21.3905C86.0784 21.6574 87.6525 21.3859 89.0036 20.6223C90.3547 19.8587 91.3992 18.6503 91.9593 17.2029L89.5557 16.2729C89.2108 17.1642 88.5676 17.9084 87.7355 18.3786C86.9035 18.8489 85.9342 19.016 84.9927 18.8517C84.0512 18.6874 83.1959 18.2017 82.5724 17.4774C81.9489 16.7531 81.5958 15.835 81.5733 14.8795C81.5508 13.9241 81.8603 12.9904 82.449 12.2376C83.0378 11.4847 83.8694 10.9593 84.8021 10.7509C85.7348 10.5424 86.7109 10.6638 87.5641 11.0944C88.4173 11.5249 89.0949 12.238 89.4813 13.1121L91.8385 12.0701Z"/>
</mask>
<path d="M91.8385 12.0701C91.211 10.6507 90.1107 9.49269 88.7252 8.79351C87.3396 8.09433 85.7545 7.89719 84.2399 8.23569C82.7253 8.5742 81.375 9.4274 80.4189 10.6499C79.4629 11.8724 78.9603 13.3886 78.9968 14.9402C79.0333 16.4917 79.6067 17.9826 80.6192 19.1587C81.6317 20.3349 83.0207 21.1237 84.5495 21.3905C86.0784 21.6574 87.6525 21.3859 89.0036 20.6223C90.3547 19.8587 91.3992 18.6503 91.9593 17.2029L89.5557 16.2729C89.2108 17.1642 88.5676 17.9084 87.7355 18.3786C86.9035 18.8489 85.9342 19.016 84.9927 18.8517C84.0512 18.6874 83.1959 18.2017 82.5724 17.4774C81.9489 16.7531 81.5958 15.835 81.5733 14.8795C81.5508 13.9241 81.8603 12.9904 82.449 12.2376C83.0378 11.4847 83.8694 10.9593 84.8021 10.7509C85.7348 10.5424 86.7109 10.6638 87.5641 11.0944C88.4173 11.5249 89.0949 12.238 89.4813 13.1121L91.8385 12.0701Z" stroke="white" stroke-width="2.98139" mask="url(#path-9-inside-1_63_18160)"/>
<mask id="path-10-inside-2_63_18160" fill="white">
<path d="M88.9534 13.3467C88.6783 12.7243 88.2302 12.1941 87.6624 11.819C87.0946 11.4439 86.431 11.2399 85.7506 11.231C85.0702 11.2222 84.4015 11.409 83.8242 11.7693C83.2469 12.1295 82.7852 12.648 82.494 13.263L83.9228 13.9394C84.0844 13.5981 84.3406 13.3103 84.661 13.1104C84.9814 12.9105 85.3525 12.8068 85.7301 12.8117C86.1077 12.8166 86.476 12.9299 86.7911 13.138C87.1062 13.3462 87.3549 13.6405 87.5076 13.9859L88.9534 13.3467Z"/>
</mask>
<path d="M88.9534 13.3467C88.6783 12.7243 88.2302 12.1941 87.6624 11.819C87.0946 11.4439 86.431 11.2399 85.7506 11.231C85.0702 11.2222 84.4015 11.409 83.8242 11.7693C83.2469 12.1295 82.7852 12.648 82.494 13.263L83.9228 13.9394C84.0844 13.5981 84.3406 13.3103 84.661 13.1104C84.9814 12.9105 85.3525 12.8068 85.7301 12.8117C86.1077 12.8166 86.476 12.9299 86.7911 13.138C87.1062 13.3462 87.3549 13.6405 87.5076 13.9859L88.9534 13.3467Z" stroke="white" stroke-width="1.57873" stroke-linejoin="round" mask="url(#path-10-inside-2_63_18160)"/>
<path d="M89.1367 20.2246L92.7015 24.2471" stroke="white" stroke-width="2.31315" stroke-linecap="round"/>
</svg>
